<svg width="119" height="20" viewBox="0 0 119 20" fill="none" xmlns="http://www.w3.org/2000/svg">
<path d="M5.09659 19H0.5625L6.4517 1.54545H12.0682L17.9574 19H13.4233L9.32386 5.94318H9.1875L5.09659 19ZM4.49148 12.1307H13.9688V15.3352H4.49148V12.1307ZM24.0043 11.5341V19H19.8366V5.90909H23.7997V8.3125H23.9446C24.2344 7.51136 24.7287 6.88352 25.4276 6.42898C26.1264 5.96875 26.9588 5.73864 27.9247 5.73864C28.8452 5.73864 29.6435 5.94602 30.3196 6.36079C31.0014 6.76989 31.5298 7.34375 31.9048 8.08239C32.2855 8.81534 32.473 9.6733 32.4673 10.6562V19H28.2997V11.4744C28.3054 10.7472 28.1207 10.179 27.7457 9.76989C27.3764 9.3608 26.8622 9.15625 26.2031 9.15625C25.7656 9.15625 25.3793 9.25284 25.044 9.44602C24.7145 9.63352 24.4588 9.90341 24.277 10.2557C24.1009 10.608 24.0099 11.0341 24.0043 11.5341ZM35.0476 19V5.90909H39.2152V19H35.0476ZM37.1357 4.38352C36.5504 4.38352 36.0476 4.19034 35.6271 3.80398C35.2067 3.41193 34.9964 2.94034 34.9964 2.3892C34.9964 1.84375 35.2067 1.37784 35.6271 0.991477C36.0476 0.599431 36.5504 0.403408 37.1357 0.403408C37.7266 0.403408 38.2294 0.599431 38.6442 0.991477C39.0646 1.37784 39.2749 1.84375 39.2749 2.3892C39.2749 2.94034 39.0646 3.41193 38.6442 3.80398C38.2294 4.19034 37.7266 4.38352 37.1357 4.38352ZM41.8679 19V5.90909H45.831V8.3125H45.9759C46.2486 7.51705 46.7088 6.8892 47.3565 6.42898C48.0043 5.96875 48.777 5.73864 49.6747 5.73864C50.5838 5.73864 51.3622 5.97159 52.0099 6.4375C52.6577 6.90341 53.0696 7.52841 53.2457 8.3125H53.3821C53.6264 7.53409 54.1037 6.91193 54.8139 6.44602C55.5241 5.97443 56.3622 5.73864 57.3281 5.73864C58.5668 5.73864 59.5724 6.13636 60.3452 6.93182C61.1179 7.72159 61.5043 8.80682 61.5043 10.1875V19H57.3366V11.142C57.3366 10.4886 57.169 9.99148 56.8338 9.65057C56.4986 9.30398 56.0639 9.13068 55.5298 9.13068C54.956 9.13068 54.5043 9.31818 54.1747 9.69318C53.8509 10.0625 53.6889 10.5597 53.6889 11.1847V19H49.6832V11.0994C49.6832 10.4915 49.5185 10.0114 49.1889 9.65909C48.8594 9.30682 48.4247 9.13068 47.8849 9.13068C47.5213 9.13068 47.2003 9.21875 46.9219 9.39489C46.6435 9.56534 46.4247 9.80966 46.2656 10.1278C46.1122 10.446 46.0355 10.821 46.0355 11.2528V19H41.8679ZM70.206 19.2472C68.8366 19.2472 67.6548 18.9773 66.6605 18.4375C65.6719 17.892 64.9105 17.1165 64.3764 16.1108C63.848 15.0994 63.5838 13.8977 63.5838 12.5057C63.5838 11.1534 63.8509 9.97159 64.3849 8.96023C64.919 7.94318 65.6719 7.15341 66.6435 6.59091C67.6151 6.02273 68.7599 5.73864 70.0781 5.73864C71.0099 5.73864 71.8622 5.88352 72.6349 6.17329C73.4077 6.46307 74.0753 6.89205 74.6378 7.46023C75.2003 8.02841 75.6378 8.73011 75.9503 9.56534C76.2628 10.3949 76.419 11.3466 76.419 12.4205V13.4602H65.0412V11.0398H72.5412C72.5355 10.5966 72.4304 10.2017 72.2259 9.85511C72.0213 9.50852 71.7401 9.23864 71.3821 9.04545C71.0298 8.84659 70.6236 8.74716 70.1634 8.74716C69.6974 8.74716 69.2798 8.85227 68.9105 9.0625C68.5412 9.26705 68.2486 9.5483 68.0327 9.90625C67.8168 10.2585 67.7031 10.6591 67.6918 11.108V13.571C67.6918 14.1051 67.7969 14.5739 68.0071 14.9773C68.2173 15.375 68.5156 15.6847 68.902 15.9062C69.2884 16.1278 69.7486 16.2386 70.2827 16.2386C70.652 16.2386 70.9872 16.1875 71.2884 16.0852C71.5895 15.983 71.848 15.8324 72.0639 15.6335C72.2798 15.4347 72.4418 15.1903 72.5497 14.9006L76.3764 15.0114C76.2173 15.8693 75.8679 16.6165 75.3281 17.2528C74.794 17.8835 74.0923 18.375 73.223 18.7273C72.3537 19.0739 71.348 19.2472 70.206 19.2472ZM78.5476 19V1.54545H90.4624V4.97159H82.7663V8.55114H89.7038V11.9858H82.7663V19H78.5476ZM96.7543 1.54545V19H92.5866V1.54545H96.7543ZM99.407 19V5.90909H103.575V19H99.407ZM101.495 4.38352C100.91 4.38352 100.407 4.19034 99.9865 3.80398C99.5661 3.41193 99.3558 2.94034 99.3558 2.3892C99.3558 1.84375 99.5661 1.37784 99.9865 0.991477C100.407 0.599431 100.91 0.403408 101.495 0.403408C102.086 0.403408 102.589 0.599431 103.004 0.991477C103.424 1.37784 103.634 1.84375 103.634 2.3892C103.634 2.94034 103.424 3.41193 103.004 3.80398C102.589 4.19034 102.086 4.38352 101.495 4.38352ZM109.773 5.90909L111.929 10.2216L114.162 5.90909H118.364L114.707 12.4545L118.5 19H114.332L111.929 14.6534L109.585 19H105.358L109.159 12.4545L105.545 5.90909H109.773Z" fill="black"/>
</svg>
